<svg xmlns="http://www.w3.org/2000/svg" viewBox="0 0 48 48"><path fill="#304ffe" d="M41.7 13.5c-.4.2-1 .5-1.2.8l-.2.2v1l-.3 1-.3 1-.3 1.2-.7 2.2-.6 2.3-.5 1.6a9.7 9.7 0 0 1-.6 3.5 9.1 9.1 0 0 1-1 2.1 9.4 9.4 0 0 1-2.8 2.8l-.3.2a7.2 7.2 0 0 1-1.7.9H31c-.5.3-1.2.5-1.9.6a12.1 12.1 0 0 1-1.8.2h-.7l-3.4-.2-1.8-.1H21l-1.5-.2a10.2 10.2 0 0 1-6-3.5l-.1-.1-.2-.2a8.6 8.6 0 0 1-1.7-3.6 10.5 10.5 0 0 1-.3-2.3v-.4l1.9-3 1.8-2.8.9-1.3.7-1.2.3-.4V14c0-.7-.1-1.4-.3-2l-.9-2-1.1-1.9c-.5-.8-.8-1.5-.8-2L16 6h16a10 10 0 0 1 9.7 7.5z"/><path fill="#4928f4" d="M42 16v.3l-1.4.8-.9.5-1 .5-1.9 1.2-1.9 1-2 1.2-.7.4c0 .5-.1 1-.3 1.4a4 4 0 0 1-1.5 1.4 9 9 0 0 1-2.4 1c-3.6 1-8.5.5-10.8-1.2-.7-.5-1.1-1.1-1.3-1.8l-.1-.8v-7.2l-.3-.4c-.5-.4-1.8-.8-3.2-1.3L9 12.1a10 10 0 0 1-1.9-.7l.6-1A10 10 0 0 1 16 6h10.8c5.4 1 10.3 3.1 14.5 6.3l.4 1.2c.1.6.3 1.3.3 2v.5z"/><path fill="#6200ea" d="M42 16v4.4l-.2.7-.8 2.3-.7 2.4-.5 1.3-.3 1.2-.4 1.1-.4 1.1-.2.6-.2.8a23.5 23.5 0 0 1-.1 2.2 6.5 6.5 0 0 1-.3 1.5 2.5 2.5 0 0 1-1.7 1.7 32.1 32.1 0 0 1-4 .4h-2.2l-2.2-.2h-2.2l-7.2-.4H16.2l-2-.2c-.8-.1-1.5-.3-2-.7a3.2 3.2 0 0 1-1.3-2l-.2-.7-.1-2V25.3l.1-2.5.1-2.5V18l.1-2.2v-.6c0-.4-1-.5-2.2-.7-.9-.1-2-.2-2.5-.4a13.5 13.5 0 0 1 1-2.7l.5-1A33.3 33.3 0 0 1 21 7.6a31.7 31.7 0 0 1 21 8l.1.4z"/><path fill="#673ab7" d="M42 18.4v4.5l-.6 1-1 2.1-.6 1.1-.5 1-.2.4v1a15.5 15.5 0 0 1-.2 2.4A7.1 7.1 0 0 1 38 34a3.8 3.8 0 0 1-1 1c-.3.3-.7.6-1.2.7l-2 .5h-2.1l-2 .2-2.3.1-2.3.1-3 .2-3.8.2h-2.2c-.6-.2-1.3-.3-1.8-.6a6 6 0 0 1-3-2.6l-.1-.4a9.3 9.3 0 0 1-1-3.1 16 16 0 0 1-.2-2v-1l-.5-1V26l-.1-.1-.8-1.8v-.3l-.8-1.7-.8-2-.8-1.9-.3-.7V16a10.3 10.3 0 0 1 .3-2.5 27.4 27.4 0 0 1 9.3-3.4A30 30 0 0 1 42 18.4z"/><path fill="#8e24aa" d="M42 21.4v5l-.6 1.3-1 2.2-.1 1.2c-.1 1.2-.4 2-.8 2.4-.4.3-.8.5-1.3.6h-3.1A81.4 81.4 0 0 0 32 34h-1l-2.3.2-2.6.2h-.4l-3 .3H21l-1.5.2h-.8c-1.1 0-2.2-.1-3-.3-.9-.1-1.6-.3-2.2-.7-.7-.3-1.2-.7-1.6-1.3-.4-.5-.7-1.2-1-2l-.2-2.4-.1-.3-.9-1.5-.1-.3-.1-.1-1-1.7-.4-.8-.6-1-1-1.8-.5-1v-3.6a24.5 24.5 0 0 1 6.3-3 27.3 27.3 0 0 1 8.6-1.4c6.8 0 13 2.4 17.9 6.4l.6.6c.9.7 1.7 1.5 2.4 2.4l.2.3z"/><path fill="#c2185b" d="M42 24.7V32a9.8 9.8 0 0 0-1.7-.8 15.6 15.6 0 0 0-2.1-.8 25.4 25.4 0 0 0-2.8-.6l-2.7-.2H18.9c-2.4 0-3.9.6-4.8.8-.9.3-1.2.1-1.3-1.5v-1.7l-.6-.4-1-.8-.5-.4-.2-.1L9 24l-.3-.2-.5-.4-1-.7-1.1-.9v-3.4l.3-.2A25.8 25.8 0 0 1 41 23.4l.4.6.6.7z"/><path fill="#d81b60" d="M42 28.7V32a10 10 0 0 1-1 4.5 2 2 0 0 1-.8 0 7.8 7.8 0 0 1-2.3-.9l-.8-.4-1.6-1-.4-.1-2-.9-.4-.1c-.6-.2-1.1-.3-1.7-.3l-1.1-.3-4.9-1.4-3-.9-1.3-.3c-3.8 0-6 1.6-7.2 1-.4-.3-.7-.9-.8-2v-1.1l-1.2-.6-.9-.4-.9-.4-.2-.2-2-1-1.5-.6V21l.5-.4.6-.4A23.2 23.2 0 0 1 21 15.8a23.5 23.5 0 0 1 19.4 10l.1.2 1 1.7.6 1z"/><path fill="#f50057" d="M41.8 34a10 10 0 0 1-2 4.2l-1.5-.6a30.1 30.1 0 0 0-6-1.3l-.5-.1-2.5-.7-1.5-.4-1.6-.5-.6-.2-6.5-1.8-1.9-.6-1.4-.3-2.3-.6h-.2l-2.3-.6h-.4l-.3-.1-1.6-.4h-.2L7 28.8 6 27.9v-4l1.1-1.1.4-.3.4-.3a20.2 20.2 0 0 1 7.9-3.8 21.6 21.6 0 0 1 26 15.5z"/><path fill="#ff1744" d="M40.3 37.6a9.3 9.3 0 0 1-2 2c-.4.5-.9.8-1.4 1.1-.2 0-.4 0-.6-.2-.7-.2-1.4-.6-2-1L32 38l-.2-.2-1.7-.2H30l-2.2-.2-2.3-.2-3.4-.3-5.3-.5-1.9-.9-1.9-.9-1.5-.7-.3-.2-.5-.2-1.4-.7-1.9-.9-.6-.3-.8-.3V27a20.6 20.6 0 0 1 2.6-2.6l.2-.1v-.1a16.7 16.7 0 0 1 4.3-2.5 19 19 0 0 1 7.9-1.7 19.3 19.3 0 0 1 17.2 10.4l.3.8a24.8 24.8 0 0 1 1 2.4 18.6 18.6 0 0 1 .8 4z"/><path fill="#ff5722" d="M38.4 39.4v.3l-1.5 1-.7.4-.7.3a18.2 18.2 0 0 0-3.3-1.3h-.4l-1.6-.3-2-.2-2.2-.3-1-.1-7.5-1L16 38a19 19 0 0 1-4-.8 41.1 41.1 0 0 1-5.3-1.5l-.4-1.4c-.2-.7-.3-1.6-.3-2.4v-1.7l1-1.5A16.7 16.7 0 0 1 9.7 26l1-.7v-.1l.6-.4a17.2 17.2 0 0 1 19.2-.2 17.3 17.3 0 0 1 7.5 10.7v.3l.4 2v1.7z"/><path fill="#ff6f00" d="M36.3 39.4a10.8 10.8 0 0 1 0 1.7 8.7 8.7 0 0 1-3.2.8 20 20 0 0 1-3-2v-.1l-1-.8h-1l-2 .1h-1l-3.8.2-3.3.1h-.7a22.5 22.5 0 0 1-3.6-.3l-2-.2a82.5 82.5 0 0 1-3.3-.4 9.6 9.6 0 0 1-2-4 14.4 14.4 0 0 1 3.7-6.1l.5-.5.9-.7.7-.6A15.1 15.1 0 0 1 21 24a15.2 15.2 0 0 1 14.5 10.1v.2a19.5 19.5 0 0 1 .7 2.6v.4c.2.7.2 1.4.2 2.1z"/><path fill="#ff9800" d="M34.3 39.4V40.8l-.2 1a8.6 8.6 0 0 1-2.1.2h-1.8l-.3-.1-2-.6-2-.6-4.6-1.4-2-.6-2 .7a65.6 65.6 0 0 1-5.5 1.3h-.6a10.2 10.2 0 0 1-3.5-3.2l.2-1.3a12.6 12.6 0 0 1 2.7-5.2l.4-.5 1.3-1.2.4-.4h.1A13.3 13.3 0 0 1 34 36.1v.3a14 14 0 0 1 .4 3z"/><path fill="#ffc107" d="M32.2 39.4v.7A17.6 17.6 0 0 1 32 42h-5.5l-1-.2-4.2-.6-.6-.1-1.3-.2-3.2.5-2.1.3h-.3a9.4 9.4 0 0 1-4.2-2v-1a11.3 11.3 0 0 1 1.5-5l.2-.2.6-.9 1.3-1.5.2-.1.1-.2.6-.4a11.3 11.3 0 0 1 12.2-1A11.3 11.3 0 0 1 31 34l.1.3c.3.6.6 1.3.7 1.9l.1.1.3 1.4v.2l.1 1.5z"/><path fill="#ffd54f" d="M30.2 39.3v.5a9.8 9.8 0 0 1-.4 2.2h-4.6l-3.9-.8-.5-.1-4.3.9H16c-.6 0-1.3 0-1.9-.2H14l-2-.7-.1-.4-.1-1.3V39a9.1 9.1 0 0 1 1.8-5 9 9 0 0 1 2.3-2.2 9.2 9.2 0 0 1 6.2-1.5c1 .2 2 .5 3 1a9.3 9.3 0 0 1 4.7 5.3l.3 1.1.2 1.7z"/><path fill="#ffe082" d="M28.1 39.5a7.3 7.3 0 0 1-.4 2.5h-4.5l-2.3-.6-2.3.6H16c-.6 0-1.3 0-1.9-.2a6.5 6.5 0 0 1-.4-2.3v-.4l.2-1.3.3-.9.2-.4.5-1a7 7 0 0 1 1.8-1.8c.7-.5 1.5-1 2.4-1.1l1.8-.3c2 0 3.8.8 5.1 2.1l.2.2.4.5a6.8 6.8 0 0 1 1.2 2.3v.1a6.4 6.4 0 0 1 .3 2z"/><path fill="#ffecb3" d="m26 39.5-.1 1.2a5 5 0 0 1-.4 1.1l-.1.2h-9l-.2-.6c-.2-.5-.4-1-.4-1.5V39.3c0-.4 0-.8.2-1.2 0-.4.2-.7.4-1l.4-.7a5 5 0 0 1 1.9-1.5l.7-.3a5 5 0 0 1 3.2 0l.5.3a5 5 0 0 1 2.5 2.5 5 5 0 0 1 .4 1.9v.2z"/><path fill="none" stroke="#fff" stroke-linecap="round" stroke-linejoin="round" stroke-miterlimit="10" stroke-width="2" d="M30 11H18a7 7 0 0 0-7 7v12a7 7 0 0 0 7 7h12a7 7 0 0 0 7-7V18a7 7 0 0 0-7-7z"/><circle cx="31" cy="16" r="1" fill="#fff"/><circle cx="24" cy="24" r="6" fill="none" stroke="#fff" stroke-linecap="round" stroke-linejoin="round" stroke-miterlimit="10" stroke-width="2"/></svg>